<?xml version="1.0" encoding="UTF-8" standalone="no"?>
<svg
   xmlns:dc="http://purl.org/dc/elements/1.1/"
   xmlns:cc="http://creativecommons.org/ns#"
   xmlns:rdf="http://www.w3.org/1999/02/22-rdf-syntax-ns#"
   xmlns:svg="http://www.w3.org/2000/svg"
   xmlns="http://www.w3.org/2000/svg"
   xmlns:xlink="http://www.w3.org/1999/xlink"
   xmlns:sodipodi="http://sodipodi.sourceforge.net/DTD/sodipodi-0.dtd"
   xmlns:inkscape="http://www.inkscape.org/namespaces/inkscape"
   width="297mm"
   height="210mm"
   viewBox="0 0 297 210"
   version="1.1"
   id="svg8"
   inkscape:version="1.0.1 (0767f8302a, 2020-10-17)"
   sodipodi:docname="gym_automata_diagram_v1.14.svg">
  <defs
     id="defs2">
    <marker
       style="overflow:visible;"
       id="Arrow1Send"
       refX="0.0"
       refY="0.0"
       orient="auto"
       inkscape:stockid="Arrow1Send"
       inkscape:isstock="true">
      <path
         transform="scale(0.2) rotate(180) translate(6,0)"
         style="fill-rule:evenodd;stroke:#5a5062;stroke-width:1pt;stroke-opacity:1;fill:#5a5062;fill-opacity:1"
         d="M 0.0,0.0 L 5.0,-5.0 L -12.5,0.0 L 5.0,5.0 L 0.0,0.0 z "
         id="path962" />
    </marker>
    <marker
       style="overflow:visible;"
       id="Arrow1Lend"
       refX="0.0"
       refY="0.0"
       orient="auto"
       inkscape:stockid="Arrow1Lend"
       inkscape:isstock="true">
      <path
         transform="scale(0.8) rotate(180) translate(12.5,0)"
         style="fill-rule:evenodd;stroke:#5a5062;stroke-width:1pt;stroke-opacity:1;fill:#5a5062;fill-opacity:1"
         d="M 0.0,0.0 L 5.0,-5.0 L -12.5,0.0 L 5.0,5.0 L 0.0,0.0 z "
         id="path950" />
    </marker>
    <marker
       style="overflow:visible"
       id="Tail"
       refX="0.0"
       refY="0.0"
       orient="auto"
       inkscape:stockid="Tail"
       inkscape:isstock="true">
      <g
         transform="scale(-1.2)"
         id="g995"
         style="stroke:#5a5062;stroke-opacity:1;fill:#5a5062;fill-opacity:1">
        <path
           style="fill:#5a5062;fill-rule:evenodd;stroke:#5a5062;stroke-width:0.8;stroke-linecap:round;stroke-opacity:1;fill-opacity:1"
           d="M -3.8048674,-3.9585227 L 0.54352094,0"
           id="path983" />
        <path
           style="fill:#5a5062;fill-rule:evenodd;stroke:#5a5062;stroke-width:0.8;stroke-linecap:round;stroke-opacity:1;fill-opacity:1"
           d="M -1.2866832,-3.9585227 L 3.0617053,0"
           id="path985" />
        <path
           style="fill:#5a5062;fill-rule:evenodd;stroke:#5a5062;stroke-width:0.8;stroke-linecap:round;stroke-opacity:1;fill-opacity:1"
           d="M 1.3053582,-3.9585227 L 5.6537466,0"
           id="path987" />
        <path
           style="fill:#5a5062;fill-rule:evenodd;stroke:#5a5062;stroke-width:0.8;stroke-linecap:round;stroke-opacity:1;fill-opacity:1"
           d="M -3.8048674,4.1775838 L 0.54352094,0.21974226"
           id="path989" />
        <path
           style="fill:#5a5062;fill-rule:evenodd;stroke:#5a5062;stroke-width:0.8;stroke-linecap:round;stroke-opacity:1;fill-opacity:1"
           d="M -1.2866832,4.1775838 L 3.0617053,0.21974226"
           id="path991" />
        <path
           style="fill:#5a5062;fill-rule:evenodd;stroke:#5a5062;stroke-width:0.8;stroke-linecap:round;stroke-opacity:1;fill-opacity:1"
           d="M 1.3053582,4.1775838 L 5.6537466,0.21974226"
           id="path993" />
      </g>
    </marker>
    <linearGradient
       inkscape:collect="always"
       id="linearGradient1256">
      <stop
         style="stop-color:#c2acd3;stop-opacity:1;"
         offset="0"
         id="stop1252" />
      <stop
         style="stop-color:#c2acd3;stop-opacity:0;"
         offset="1"
         id="stop1254" />
    </linearGradient>
    <linearGradient
       inkscape:collect="always"
       xlink:href="#linearGradient1256"
       id="linearGradient1258"
       x1="-125.57112"
       y1="40.63688"
       x2="-96.4256"
       y2="40.63688"
       gradientUnits="userSpaceOnUse" />
  </defs>
  <sodipodi:namedview
     id="base"
     pagecolor="#ffffff"
     bordercolor="#666666"
     borderopacity="1.0"
     inkscape:pageopacity="0.0"
     inkscape:pageshadow="2"
     inkscape:zoom="0.7071068"
     inkscape:cx="540.7444"
     inkscape:cy="468.80099"
     inkscape:document-units="mm"
     inkscape:current-layer="layer1"
     inkscape:document-rotation="0"
     showgrid="false"
     inkscape:window-width="1848"
     inkscape:window-height="1030"
     inkscape:window-x="72"
     inkscape:window-y="27"
     inkscape:window-maximized="1"
     showguides="false"
     inkscape:guide-bbox="true"
     inkscape:snap-object-midpoints="true"
     inkscape:snap-global="true"
     inkscape:snap-intersection-paths="true"
     inkscape:object-paths="true"
     inkscape:snap-smooth-nodes="true"
     inkscape:snap-midpoints="true"
     inkscape:snap-nodes="true"
     inkscape:snap-text-baseline="true">
    <sodipodi:guide
       position="150,212.40542"
       orientation="-1,0"
       id="guide918"
       inkscape:label=""
       inkscape:locked="false"
       inkscape:color="rgb(0,0,255)" />
    <sodipodi:guide
       position="54.231924,110"
       orientation="0,1"
       id="guide922"
       inkscape:label=""
       inkscape:locked="false"
       inkscape:color="rgb(0,0,255)" />
    <sodipodi:guide
       position="87.884074,50"
       orientation="0,1"
       id="guide842"
       inkscape:label=""
       inkscape:locked="false"
       inkscape:color="rgb(0,0,255)" />
    <sodipodi:guide
       position="57.722445,170"
       orientation="0,1"
       id="guide844"
       inkscape:label=""
       inkscape:locked="false"
       inkscape:color="rgb(0,0,255)" />
    <sodipodi:guide
       position="71.418252,110"
       orientation="1,0"
       id="guide846" />
    <sodipodi:guide
       position="227.76256,110"
       orientation="1,0"
       id="guide848" />
    <sodipodi:guide
       position="71.418253,177.4339"
       orientation="0,-1"
       id="guide852" />
    <sodipodi:guide
       position="178.74978,162.5661"
       orientation="0,-1"
       id="guide854" />
    <sodipodi:guide
       position="218.54112,179.43117"
       orientation="0,-1"
       id="guide1152" />
    <inkscape:grid
       type="xygrid"
       id="grid1300" />
    <sodipodi:guide
       position="255.22787,144.66965"
       orientation="1,0"
       id="guide942" />
    <sodipodi:guide
       position="200.31259,144.66965"
       orientation="1,0"
       id="guide944" />
  </sodipodi:namedview>
  <metadata
     id="metadata5">
    <rdf:RDF>
      <cc:Work
         rdf:about="">
        <dc:format>image/svg+xml</dc:format>
        <dc:type
           rdf:resource="http://purl.org/dc/dcmitype/StillImage" />
        <dc:title></dc:title>
      </cc:Work>
    </rdf:RDF>
  </metadata>
  <g
     inkscape:label="Layer 1"
     inkscape:groupmode="layer"
     id="layer1">
    <path
       id="path942"
       style="opacity:1;fill:none;stroke:#d4d2c5;stroke-width:5.66929141;stroke-linejoin:round;paint-order:markers fill stroke;stroke-miterlimit:4;stroke-dasharray:22.67716564,5.66929141;stroke-dashoffset:0"
       d="M 233.11007 308.58152 A 93.938846 43.08976 42.240998 0 1 301.78406 348.72752 A 93.938846 43.08976 42.240998 0 1 344.28823 414.76705 "
       transform="scale(0.26458333)" />
    <path
       id="path919"
       style="opacity:1;fill:none;stroke:#d4d2c5;stroke-width:5.66929141;stroke-linejoin:round;paint-order:markers fill stroke;stroke-miterlimit:4;stroke-dasharray:22.67716564,5.66929141;stroke-dashoffset:0"
       d="M 306.74426 447.32394 A 93.938846 43.08976 42.240998 0 1 238.07045 407.17799 A 93.938846 43.08976 42.240998 0 1 195.56588 341.13657 "
       transform="scale(0.26458333)" />
    <rect
       style="fill:none;stroke:#c2acd3;stroke-width:2;stroke-linejoin:round;stroke-miterlimit:4;stroke-dasharray:none;stroke-opacity:1;paint-order:markers fill stroke"
       id="rect1009-2-3"
       width="22.779377"
       height="22.779377"
       x="38.897999"
       y="67.479713" />
    <rect
       style="fill:none;stroke:#d69cc4;stroke-width:2;stroke-linejoin:round;stroke-miterlimit:4;stroke-dasharray:none;stroke-opacity:1;paint-order:markers fill stroke"
       id="rect1009-2"
       width="22.779377"
       height="22.779377"
       x="81.159439"
       y="109.74072" />
    <rect
       style="opacity:1;fill:none;stroke:#f9b2ba;stroke-width:2;stroke-linejoin:round;stroke-miterlimit:4;stroke-dasharray:none;paint-order:markers fill stroke"
       id="rect853"
       width="84.522644"
       height="84.522644"
       x="29.156931"
       y="57.738678" />
    <path
       style="fill:none;stroke:#f9b2ba;stroke-width:2;stroke-linecap:butt;stroke-linejoin:miter;stroke-miterlimit:4;stroke-dasharray:none;stroke-opacity:1"
       d="M 71.418251,142.26132 V 160 H 150 v 0"
       id="path999" />
    <path
       style="fill:none;stroke:#f9b2ba;stroke-width:2;stroke-linecap:butt;stroke-linejoin:miter;stroke-miterlimit:4;stroke-dasharray:none;stroke-opacity:1"
       d="M 63.965808,58.707495 V 32.511342 l 86.052962,-2e-6 v 0"
       id="path947" />
    <path
       style="fill:none;stroke:#f9b2ba;stroke-width:2;stroke-linecap:butt;stroke-linejoin:miter;stroke-miterlimit:4;stroke-dasharray:none;stroke-opacity:1"
       d="M 78.845984,58.662242 78.669442,47.415669 h 71.336838"
       id="path951" />
    <text
       xml:space="preserve"
       style="font-style:normal;font-variant:normal;font-weight:normal;font-stretch:normal;font-size:8.46667px;line-height:1.25;font-family:'Futura Lt BT';-inkscape-font-specification:'Futura Lt BT';fill:#d69cc4;fill-opacity:1;stroke-width:0.264583"
       x="66.554131"
       y="-98.64669"
       id="text1246"
       transform="rotate(90)"><tspan
         sodipodi:role="line"
         id="tspan1244"
         x="66.554131"
         y="-98.64669"
         style="font-style:normal;font-variant:normal;font-weight:normal;font-stretch:normal;font-size:8.46667px;font-family:'Futura Lt BT';-inkscape-font-specification:'Futura Lt BT';fill:#d69cc4;fill-opacity:1;stroke-width:0.264583">Automaton</tspan></text>
    <text
       xml:space="preserve"
       style="font-style:normal;font-variant:normal;font-weight:normal;font-stretch:normal;font-size:8.46667px;line-height:1.25;font-family:'Futura Lt BT';-inkscape-font-specification:'Futura Lt BT, Normal';font-variant-ligatures:normal;font-variant-caps:normal;font-variant-numeric:normal;font-variant-east-asian:normal;opacity:1;fill:#c2acd3;fill-opacity:1;stroke-width:0.265;stroke-miterlimit:4;stroke-dasharray:none"
       x="-126.47564"
       y="44.384426"
       id="text1250"
       transform="rotate(-90)"><tspan
         sodipodi:role="line"
         id="tspan1248"
         x="-126.47564"
         y="44.384426"
         style="font-style:normal;font-variant:normal;font-weight:normal;font-stretch:normal;font-size:8.46667px;font-family:'Futura Lt BT';-inkscape-font-specification:'Futura Lt BT, Normal';font-variant-ligatures:normal;font-variant-caps:normal;font-variant-numeric:normal;font-variant-east-asian:normal;fill:#c2acd3;fill-opacity:1;stroke-width:0.265;stroke-miterlimit:4;stroke-dasharray:none">Modifier</tspan></text>
    <text
       xml:space="preserve"
       style="font-style:normal;font-variant:normal;font-weight:normal;font-stretch:normal;font-size:14.1111px;line-height:1.25;font-family:'Futura Lt BT';-inkscape-font-specification:'Futura Lt BT, Normal';font-variant-ligatures:normal;font-variant-caps:normal;font-variant-numeric:normal;font-variant-east-asian:normal;fill:#c8d5a7;fill-opacity:1;stroke-width:0.264583"
       x="207.42059"
       y="180.93788"
       id="text1280-0"><tspan
         sodipodi:role="line"
         id="tspan1278-0"
         x="207.42059"
         y="180.93788"
         style="font-style:normal;font-variant:normal;font-weight:normal;font-stretch:normal;font-size:14.1111px;font-family:'Futura Lt BT';-inkscape-font-specification:'Futura Lt BT, Normal';font-variant-ligatures:normal;font-variant-caps:normal;font-variant-numeric:normal;font-variant-east-asian:normal;fill:#c8d5a7;fill-opacity:1;stroke-width:0.264583">Agent</tspan></text>
    <path
       d="m 227.37829,186.28535 h -3.4036 v -1.4863 c 0,-0.81882 0.66624,-1.48505 1.48506,-1.48505 1.14628,0 2.07909,-0.93268 2.07909,-2.07912 v -0.297 h -0.59404 v 0.297 c 0,0.81884 -0.66623,1.48508 -1.48505,1.48508 -1.14628,0 -2.07909,0.93266 -2.07909,2.07909 v 1.4863 h -3.40393 c -1.88901,0 -3.42753,1.59795 -3.42753,3.56417 0,1.96325 1.53852,3.56414 3.42753,3.56414 1.35437,0 2.55728,-0.81082 3.11567,-2.07909 h 1.17023 c 0.55836,1.26827 1.76129,2.07909 3.11566,2.07909 1.88899,0 3.42752,-1.60089 3.42752,-3.56414 0,-1.96622 -1.53853,-3.56417 -3.42752,-3.56417 z m -7.26494,1.18807 c 0.49008,0 0.89105,0.398 0.89105,0.89103 0,0.49008 -0.40097,0.89104 -0.89105,0.89104 -0.49007,0 -0.89104,-0.40096 -0.89104,-0.89104 0,-0.49303 0.40097,-0.89103 0.89104,-0.89103 z m -2.22758,2.22758 c 0,-0.49303 0.40095,-0.89103 0.89103,-0.89103 0.49008,0 0.89104,0.398 0.89104,0.89103 0,0.49008 -0.40096,0.89104 -0.89104,0.89104 -0.49008,0 -0.89103,-0.40096 -0.89103,-0.89104 z m 2.22758,2.2276 c -0.49007,0 -0.89104,-0.40096 -0.89104,-0.89103 0,-0.49303 0.40097,-0.89104 0.89104,-0.89104 0.49008,0 0.89105,0.39801 0.89105,0.89104 0,0.49007 -0.40097,0.89103 -0.89105,0.89103 z m 1.33657,-1.33656 c -0.49008,0 -0.89104,-0.40096 -0.89104,-0.89104 0,-0.49303 0.40096,-0.89103 0.89104,-0.89103 0.49007,0 0.89103,0.398 0.89103,0.89103 0,0.49008 -0.40096,0.89104 -0.89103,0.89104 z m 7.57398,-0.74378 h -1.18806 v 1.18805 h -0.59402 v -1.18805 h -1.18804 v -0.59403 h 1.18804 v -1.18805 h 0.59402 v 1.18805 h 1.18806 z"
       id="path1302"
       style="fill:#c8d5a7;fill-opacity:1;stroke-width:0.297011" />
    <path
       d="m 73.974811,172.09451 c 1.061417,1.05 1.643488,2.45382 1.643488,3.94894 0,1.49512 -0.582071,2.89893 -1.643488,3.94893 -1.050008,1.06143 -2.453822,1.6435 -3.948945,1.6435 -1.495122,0 -2.898932,-0.58207 -3.948941,-1.6435 -1.061416,-1.05 -1.643491,-2.45381 -1.643491,-3.94893 0,-1.49512 0.582075,-2.89894 1.643491,-3.94894 1.061421,-1.05001 2.453819,-1.64349 3.948941,-1.64349 1.495123,0 2.898937,0.58207 3.948945,1.64349 z m -0.49077,7.40711 c 0.684786,-0.68478 1.141313,-1.55218 1.335342,-2.47664 -0.148373,0.21684 -0.285334,0.29674 -0.376637,-0.18261 -0.09131,-0.78752 -0.810332,-0.28534 -1.278266,-0.57066 -0.479358,0.31956 -1.563603,-0.62771 -1.380995,0.44512 0.285334,0.49076 1.529369,-0.65056 0.913052,0.37663 -0.388045,0.71902 -1.438049,2.30543 -1.301093,3.12719 0.02281,1.19837 -1.22121,0.2511 -1.654903,-0.14837 -0.285333,-0.79893 -0.102724,-2.19132 -0.855983,-2.57937 -0.821748,-0.0341 -1.517951,-0.11413 -1.83752,-1.02719 -0.194016,-0.65053 0.205441,-1.62065 0.901639,-1.78043 1.02718,-0.63914 1.392403,0.75327 2.351103,0.77609 0.296744,-0.30816 1.107072,-0.41088 1.175552,-0.76467 -0.627722,-0.11413 0.798919,-0.52501 -0.05708,-0.76469 -0.47936,0.0571 -0.776091,0.49076 -0.525007,0.86739 -0.924464,0.21686 -0.947288,-1.33533 -1.837507,-0.84457 -0.02281,0.77609 -1.449471,0.2511 -0.49077,0.0912 0.33098,-0.14837 -0.536414,-0.55926 -0.06848,-0.47937 0.228269,-0.0114 0.992945,-0.28531 0.787502,-0.46792 0.433708,-0.26251 0.787513,0.63912 1.209799,-0.0228 0.308153,-0.50217 -0.125545,-0.59348 -0.502178,-0.34238 -0.21685,-0.23968 0.376633,-0.75326 0.901635,-0.98153 0.171192,-0.0799 0.342393,-0.11413 0.467938,-0.10277 0.262501,0.30815 0.753262,0.35382 0.776095,-0.0343 -0.650555,-0.30815 -1.369573,-0.47935 -2.111434,-0.47935 -1.061416,0 -2.077188,0.34239 -2.921755,0.9701 0.228266,0.10277 0.353805,0.22829 0.136956,0.39948 -0.171197,0.50217 -0.855983,1.17555 -1.44947,1.08424 -0.308149,0.5364 -0.513586,1.12991 -0.604895,1.75763 0.502178,0.17118 0.616311,0.49075 0.513595,0.6049 -0.251095,0.22825 -0.410874,0.5364 -0.490766,0.89021 0.159789,1.00435 0.639139,1.92882 1.369577,2.65926 0.924456,0.92446 2.157072,1.43805 3.45817,1.43805 1.301098,0 2.522304,-0.51359 3.446768,-1.43805 z"
       id="path1321"
       style="fill:#f9b2ba;fill-opacity:1;stroke-width:0.11413" />
    <text
       xml:space="preserve"
       style="font-style:normal;font-variant:normal;font-weight:normal;font-stretch:normal;font-size:14.1111px;line-height:1.25;font-family:'Futura Lt BT';-inkscape-font-specification:'Futura Lt BT, Normal';font-variant-ligatures:normal;font-variant-caps:normal;font-variant-numeric:normal;font-variant-east-asian:normal;fill:#f9b2ba;fill-opacity:1;stroke-width:0.264583"
       x="35.43531"
       y="180.89842"
       id="text1280-9"><tspan
         sodipodi:role="line"
         id="tspan1278-5"
         x="35.43531"
         y="180.89842"
         style="font-style:normal;font-variant:normal;font-weight:normal;font-stretch:normal;font-size:14.1111px;font-family:'Futura Lt BT';-inkscape-font-specification:'Futura Lt BT, Normal';font-variant-ligatures:normal;font-variant-caps:normal;font-variant-numeric:normal;font-variant-east-asian:normal;fill:#f9b2ba;fill-opacity:1;stroke-width:0.264583">Envir</tspan></text>
    <text
       xml:space="preserve"
       style="font-style:normal;font-variant:normal;font-weight:normal;font-stretch:normal;font-size:14.1111px;line-height:1.25;font-family:'Futura Lt BT';-inkscape-font-specification:'Futura Lt BT, Normal';font-variant-ligatures:normal;font-variant-caps:normal;font-variant-numeric:normal;font-variant-east-asian:normal;fill:#f9b2ba;fill-opacity:1;stroke-width:0.264583"
       x="75.38739"
       y="180.89842"
       id="text1280-93"><tspan
         sodipodi:role="line"
         id="tspan1278-1"
         x="75.38739"
         y="180.89842"
         style="font-style:normal;font-variant:normal;font-weight:normal;font-stretch:normal;font-size:14.1111px;font-family:'Futura Lt BT';-inkscape-font-specification:'Futura Lt BT, Normal';font-variant-ligatures:normal;font-variant-caps:normal;font-variant-numeric:normal;font-variant-east-asian:normal;fill:#f9b2ba;fill-opacity:1;stroke-width:0.264583">nment</tspan></text>
    <text
       xml:space="preserve"
       style="font-style:normal;font-variant:normal;font-weight:normal;font-stretch:normal;font-size:8.46667px;line-height:1.25;font-family:'Futura Lt BT';-inkscape-font-specification:'Futura Lt BT, Normal';font-variant-ligatures:normal;font-variant-caps:normal;font-variant-numeric:normal;font-variant-east-asian:normal;stroke-width:0.264583;fill:#d4d2c5;fill-opacity:1;stroke:none;"
       x="138.75903"
       y="158.67682"
       id="text1439"><tspan
         sodipodi:role="line"
         id="tspan1437"
         x="138.75903"
         y="158.67682"
         style="font-style:normal;font-variant:normal;font-weight:normal;font-stretch:normal;font-size:8.46667px;font-family:'Futura Lt BT';-inkscape-font-specification:'Futura Lt BT, Normal';font-variant-ligatures:normal;font-variant-caps:normal;font-variant-numeric:normal;font-variant-east-asian:normal;stroke-width:0.264583;fill:#d4d2c5;fill-opacity:1;stroke:none;">Action</tspan></text>
    <text
       xml:space="preserve"
       style="font-style:normal;font-variant:normal;font-weight:normal;font-stretch:normal;font-size:8.46667px;line-height:1.25;font-family:'Futura Lt BT';-inkscape-font-specification:'Futura Lt BT, Normal';font-variant-ligatures:normal;font-variant-caps:normal;font-variant-numeric:normal;font-variant-east-asian:normal;fill:#d4d2c5;fill-opacity:1;stroke:none;stroke-width:0.264583"
       x="127.79742"
       y="30.578716"
       id="text1443"><tspan
         sodipodi:role="line"
         id="tspan1441"
         x="127.79742"
         y="30.578716"
         style="font-style:normal;font-variant:normal;font-weight:normal;font-stretch:normal;font-size:8.46667px;font-family:'Futura Lt BT';-inkscape-font-specification:'Futura Lt BT, Normal';font-variant-ligatures:normal;font-variant-caps:normal;font-variant-numeric:normal;font-variant-east-asian:normal;fill:#d4d2c5;fill-opacity:1;stroke:none;stroke-width:0.264583">Observation</tspan></text>
    <text
       xml:space="preserve"
       style="font-style:normal;font-variant:normal;font-weight:normal;font-stretch:normal;font-size:8.46667px;line-height:1.25;font-family:'Futura Lt BT';-inkscape-font-specification:'Futura Lt BT, Normal';font-variant-ligatures:normal;font-variant-caps:normal;font-variant-numeric:normal;font-variant-east-asian:normal;fill:#d4d2c5;fill-opacity:1;stroke:none;stroke-width:0.264583"
       x="136.49147"
       y="45.769749"
       id="text1447"><tspan
         sodipodi:role="line"
         x="136.49147"
         y="45.769749"
         style="font-style:normal;font-variant:normal;font-weight:normal;font-stretch:normal;font-size:8.46667px;font-family:'Futura Lt BT';-inkscape-font-specification:'Futura Lt BT, Normal';font-variant-ligatures:normal;font-variant-caps:normal;font-variant-numeric:normal;font-variant-east-asian:normal;fill:#d4d2c5;fill-opacity:1;stroke:none;stroke-width:0.264583"
         id="tspan1449">Reward</tspan></text>
    <g
       fill="#000000"
       fill-rule="evenodd"
       id="g978"
       transform="matrix(0.66947398,0,0,0.66947398,194.28886,59.124898)"
       style="fill:#c8d5a7" />
    <path
       id="path1004"
       style="fill:none;stroke:#c8d5a7;stroke-width:2.11221;stroke-linecap:butt;stroke-linejoin:miter;stroke-miterlimit:4;stroke-dasharray:none;stroke-opacity:1"
       d="M 200.31258,65.330351 V 46.429823 m 1.03534,1.004076 -51.34792,2e-6" />
    <path
       id="path1006"
       style="fill:none;stroke:#c8d5a7;stroke-width:2;stroke-linecap:butt;stroke-linejoin:miter;stroke-opacity:1;stroke-miterlimit:4;stroke-dasharray:none"
       d="M 255.22786,65.33035 V 32.566096 m -105.22786,3e-6 106.22302,-3e-6 m -28.477,86.208534 v 42.22804 M 227.76256,160 H 150 m 96.53715,-82.33077 6.86109,-11.85098 c 0.37051,-0.639966 1.18966,-0.858406 1.82962,-0.487899 0.63997,0.370507 0.85841,1.189656 0.4879,1.829623 l -7.10751,12.276616 c 5.93327,5.808037 5.93327,13.162007 5.93327,13.162007 v 13.389483 c 0,0 0,13.38948 -26.77896,13.38948 -26.77896,0 -26.77896,-13.38948 -26.77896,-13.38948 V 92.598597 c 0,0 0,-7.361252 5.94208,-13.17063 L 199.8248,67.159974 c -0.37042,-0.639967 -0.15203,-1.459116 0.48778,-1.829623 0.63982,-0.370507 1.45878,-0.152067 1.82921,0.487899 l 6.8555,11.844055 c 3.96712,-2.945845 9.89814,-5.147927 18.76527,-5.147927 8.87407,0 14.80744,2.205534 18.77459,5.154852 z m -38.85881,21.624107 c 0,-5.546104 4.49091,-10.04211 10.04551,-10.04211 h 20.07742 c 5.54798,0 10.04551,4.494786 10.04551,10.04211 0,5.546103 -4.49091,10.042113 -10.04551,10.042113 h -20.07742 c -5.54798,0 -10.04551,-4.49479 -10.04551,-10.042113 z m 10.04211,1.338943 v 0 c 0.73948,0 1.33895,-0.59946 1.33895,-1.338943 0,-0.73948 -0.59947,-1.338948 -1.33895,-1.338948 -0.73948,0 -1.33895,0.599468 -1.33895,1.338948 0,0.739483 0.59947,1.338943 1.33895,1.338943 z m 0,2.6779 c -2.21844,0 -4.01684,-1.7984 -4.01684,-4.016843 0,-2.218441 1.7984,-4.016844 4.01684,-4.016844 2.21844,0 4.01684,1.798403 4.01684,4.016844 0,2.218443 -1.7984,4.016843 -4.01684,4.016843 z m 20.08422,-2.6779 c 0.73948,0 1.33895,-0.59946 1.33895,-1.338943 0,-0.73948 -0.59947,-1.338948 -1.33895,-1.338948 -0.73948,0 -1.33895,0.599468 -1.33895,1.338948 0,0.739483 0.59947,1.338943 1.33895,1.338943 z m 0,2.6779 v 0 c -2.21844,0 -4.01685,-1.7984 -4.01685,-4.016843 0,-2.218441 1.79841,-4.016844 4.01685,-4.016844 2.21844,0 4.01684,1.798403 4.01684,4.016844 0,2.218443 -1.7984,4.016843 -4.01684,4.016843 z" />
  </g>
</svg>
